<?xml version="1.0" standalone="no"?>
<!DOCTYPE svg PUBLIC "-//W3C//DTD SVG 20010904//EN"
 "http://www.w3.org/TR/2001/REC-SVG-20010904/DTD/svg10.dtd">
<svg version="1.0" xmlns="http://www.w3.org/2000/svg"
 width="811.000000pt" height="1122.000000pt" viewBox="0 0 811.000000 1122.000000"
 preserveAspectRatio="xMidYMid meet">

<g transform="translate(0.000000,1122.000000) scale(0.100000,-0.100000)"
fill="#000000" stroke="none">
<path d="M3320 7745 c-184 -26 -220 -35 -220 -59 0 -16 38 -56 52 -56 22 0 41
-66 73 -265 19 -121 39 -244 45 -274 17 -91 13 -128 -14 -146 -32 -21 -37 -37
-21 -69 16 -30 18 -28 -55 -51 -163 -52 -420 -165 -420 -185 0 -6 11 -28 25
-50 l25 -39 102 48 c489 230 1030 296 1551 190 195 -39 414 -112 567 -188 117
-59 116 -59 140 -12 11 22 20 44 20 49 0 8 -120 70 -217 112 -29 12 -51 26
-48 30 2 4 28 10 57 13 156 19 301 176 343 373 23 108 20 209 -9 269 -50 105
-108 139 -441 261 l-120 44 -17 -21 c-22 -26 -22 -41 -2 -81 14 -27 14 -40 4
-92 -22 -115 -138 -443 -178 -504 -8 -13 -28 -26 -44 -29 -33 -7 -48 -29 -48
-72 0 -37 0 -37 -145 -16 -55 8 -162 18 -237 21 l-138 7 6 38 c6 36 5 38 -28
52 -24 10 -58 44 -104 103 -38 49 -89 111 -114 137 -25 27 -47 53 -48 58 -2 5
17 32 41 59 25 28 51 67 58 87 18 57 6 144 -28 194 -60 89 -140 102 -413 64z
m195 -86 c47 -13 101 -66 110 -110 17 -75 -22 -142 -107 -185 -57 -29 -103
-34 -124 -13 -7 8 -21 53 -29 99 -9 47 -20 105 -24 129 -8 39 -6 47 15 67 26
27 89 32 159 13z m1516 -141 c107 -57 128 -81 139 -156 8 -60 0 -167 -18 -227
-15 -50 -60 -132 -92 -169 -17 -19 -52 -43 -78 -53 -89 -34 -251 -14 -269 33
-3 9 5 51 19 93 81 241 172 498 181 509 15 19 35 15 118 -30z m-1477 -268 c42
-21 72 -59 136 -173 18 -33 48 -74 67 -93 39 -40 42 -38 -89 -53 -128 -14
-125 -15 -132 14 -5 20 -15 26 -47 31 -48 8 -52 16 -74 133 -22 120 -21 129
18 146 44 20 74 18 121 -5z"/>
<path d="M2088 7242 c-76 -53 -183 -128 -238 -167 -55 -38 -100 -75 -100 -83
0 -21 47 -62 72 -62 54 0 127 -80 304 -335 121 -174 120 -172 99 -211 -17 -31
-17 -35 -1 -59 27 -41 26 -42 211 95 28 20 97 70 154 110 142 101 162 139 121
221 -25 48 -40 55 -79 39 -31 -12 -46 -35 -35 -52 3 -5 3 -24 0 -42 -13 -69
-154 -172 -218 -159 -37 7 -90 63 -128 134 -38 72 -32 92 50 155 68 53 77 82
35 110 -23 15 -27 15 -48 0 -141 -103 -156 -105 -207 -31 -68 99 -71 142 -16
197 75 76 147 102 211 78 32 -12 61 1 70 30 9 29 -67 130 -98 130 -12 -1 -84
-44 -159 -98z"/>
<path d="M6081 7012 c-6 -11 -6 -24 1 -36 17 -30 0 -81 -45 -132 -131 -152
-353 -387 -377 -399 -17 -9 -41 -12 -62 -8 -29 4 -38 1 -52 -18 -19 -28 -15
-33 103 -129 44 -36 80 -69 81 -73 0 -4 -10 -21 -22 -37 l-21 -29 74 -78 c380
-400 616 -916 670 -1468 13 -139 7 -471 -11 -588 -7 -43 -10 -80 -7 -83 3 -3
25 -10 48 -15 31 -7 44 -7 50 2 37 61 49 638 16 829 -23 136 -53 269 -79 349
-16 50 -18 68 -9 83 6 10 11 39 11 66 0 43 8 61 74 163 41 63 86 131 101 152
l26 39 127 -7 c157 -9 211 -18 280 -50 112 -51 123 -29 53 112 -28 57 -58 106
-67 110 -9 3 -28 -9 -53 -36 -36 -39 -40 -41 -98 -41 -105 0 -183 11 -183 27
0 21 139 201 161 208 10 4 27 4 38 0 10 -3 28 2 40 12 l22 18 -56 120 c-31 66
-61 123 -67 126 -11 7 -47 0 -49 -10 -1 -3 -3 -25 -4 -48 -3 -39 -53 -141
-132 -266 -47 -75 -110 -96 -236 -77 -186 28 -242 40 -272 62 -17 13 -41 21
-59 20 -19 -2 -33 4 -43 18 -33 46 -112 142 -186 223 l-78 85 -5 66 c-5 77
-22 51 214 311 218 239 206 229 260 221 46 -6 72 5 72 29 0 17 -205 195 -224
195 -9 0 -20 -8 -25 -18z m427 -1328 c22 -6 13 -32 -35 -102 -70 -100 -131
-168 -140 -157 -5 6 -28 51 -52 101 -36 76 -43 97 -37 127 4 21 13 37 24 40
19 5 219 -2 240 -9z"/>
<path d="M3230 6535 c0 -51 18 -103 43 -124 27 -22 20 -31 -22 -31 -22 0 -42
-4 -45 -9 -3 -4 4 -26 15 -47 15 -29 19 -49 14 -79 -7 -46 -63 -150 -108 -202
-37 -42 -43 -97 -11 -120 24 -18 126 -13 258 13 l89 18 66 -70 c99 -106 160
-220 255 -480 27 -72 63 -116 104 -129 29 -9 29 9 -3 47 -26 31 -55 115 -55
157 1 20 7 12 29 -35 16 -33 51 -85 78 -115 42 -47 52 -67 72 -139 12 -47 32
-115 43 -151 18 -61 19 -79 10 -208 -5 -79 -14 -147 -19 -152 -15 -15 -83 -24
-83 -10 0 6 -7 11 -15 11 -8 0 -15 -4 -15 -10 0 -6 -27 -10 -61 -10 -56 0 -61
2 -56 19 5 22 -15 19 -45 -7 -16 -14 -20 -13 -39 4 -19 17 -21 18 -30 1 -6 -9
-17 -17 -24 -17 -18 0 -20 31 -3 48 19 19 -12 15 -57 -8 -22 -11 -45 -20 -52
-20 -7 0 -13 -4 -13 -10 0 -14 -54 -12 -68 2 -10 10 -17 10 -32 0 -29 -18 -74
-16 -66 3 6 18 -4 19 -37 4 -19 -9 -31 -7 -61 10 -47 27 -49 26 -44 -4 6 -31
1 -31 -22 -2 l-18 22 -11 -28 c-15 -40 -44 -32 -52 13 l-5 35 -20 -32 c-23
-39 -28 -40 -66 -8 -39 33 -51 32 -43 -5 9 -40 -10 -39 -31 2 -20 39 -30 359
-11 393 6 11 23 52 37 90 26 68 27 70 58 67 38 -3 107 29 116 54 3 9 1 31 -6
49 -14 41 8 139 32 141 8 1 25 2 37 3 24 1 63 37 63 58 0 8 -16 21 -35 29 -29
12 -43 12 -75 3 -34 -10 -41 -9 -66 10 -38 30 -140 30 -179 -1 -16 -13 -45
-22 -73 -24 -28 -2 -59 -13 -82 -29 -45 -31 -59 -31 -222 1 -125 25 -139 26
-228 15 -112 -14 -161 -35 -228 -100 -62 -60 -69 -90 -76 -319 -4 -155 3 -232
21 -232 13 0 42 48 43 70 1 24 1 24 12 5 13 -22 24 -211 14 -249 -3 -13 -16
-28 -28 -32 -12 -4 -31 -17 -41 -30 -23 -30 -30 -30 -47 1 -18 33 -25 32 -61
-10 -17 -19 -37 -35 -45 -35 -21 0 -29 29 -15 52 16 26 8 33 -19 18 -11 -6
-30 -8 -40 -5 -13 4 -20 2 -20 -7 -1 -28 -58 -76 -102 -86 -29 -7 -35 -10 -18
-11 14 -1 113 -8 220 -16 107 -8 291 -18 408 -22 116 -3 212 -9 212 -12 0 -3
-50 -55 -111 -116 -61 -60 -117 -119 -125 -130 -11 -15 -14 -61 -14 -201 l0
-182 -37 -12 c-98 -31 -180 -108 -230 -216 -25 -52 -28 -71 -28 -159 0 -93 2
-105 33 -167 41 -85 109 -152 192 -192 60 -29 73 -31 170 -31 93 0 112 4 163
27 113 53 202 170 228 301 33 163 -77 362 -236 428 l-55 23 0 150 0 150 167
168 167 168 173 0 173 0 0 -608 0 -608 -57 -24 c-83 -34 -182 -135 -212 -214
-76 -204 7 -418 199 -510 60 -29 73 -31 170 -31 93 0 112 3 162 27 205 96 290
326 197 530 -40 85 -121 165 -203 199 l-56 23 0 608 0 608 332 0 331 0 -121
-124 -122 -124 0 -180 0 -179 -74 -37 c-85 -42 -141 -98 -183 -185 -25 -50
-28 -67 -28 -156 0 -91 3 -106 31 -165 142 -301 561 -295 702 9 23 48 27 70
27 151 0 82 -4 103 -27 152 -15 32 -39 73 -55 93 -34 43 -131 111 -173 120
l-30 7 0 146 0 147 163 163 162 162 168 0 167 0 0 -589 0 -589 -25 -6 c-46
-12 -124 -67 -170 -119 -64 -73 -89 -141 -89 -247 0 -121 27 -185 113 -271 72
-72 132 -101 232 -114 106 -13 244 39 320 123 178 192 115 497 -126 612 l-65
31 2 582 3 582 165 3 164 3 168 -168 168 -168 0 -136 0 -137 -64 -30 c-87 -41
-149 -100 -189 -181 -30 -61 -32 -72 -32 -171 0 -96 3 -110 29 -165 78 -158
257 -248 419 -211 37 9 86 25 109 37 59 30 130 105 164 174 26 55 29 69 29
165 0 99 -2 109 -33 172 -46 94 -131 167 -234 201 -16 6 -18 24 -18 188 l0
182 -115 117 c-63 64 -115 119 -115 122 0 3 96 8 213 12 116 4 291 14 387 22
96 7 188 14 204 14 37 0 27 11 -14 16 -44 5 -50 11 -50 48 0 19 -9 41 -20 54
-28 29 -33 28 -25 -8 8 -35 -8 -41 -25 -10 -11 21 -30 27 -30 11 0 -5 -5 -22
-10 -37 -10 -25 -12 -26 -26 -12 -9 9 -19 31 -23 49 l-7 34 -18 -33 -17 -33
-35 30 c-39 35 -71 42 -59 14 5 -10 10 -33 13 -50 3 -26 1 -33 -12 -33 -11 0
-16 9 -16 30 0 33 -3 35 -29 20 -14 -7 -23 -5 -36 10 -24 26 -35 25 -35 -4 0
-35 -23 -50 -38 -25 -14 23 -32 25 -32 4 0 -25 -17 -17 -25 13 -3 15 -10 126
-14 247 -7 210 -9 222 -34 275 -34 69 -34 122 -3 226 44 147 57 279 42 414 -8
67 -7 73 7 61 19 -15 41 -81 58 -171 18 -93 15 -386 -5 -480 -9 -41 -19 -110
-22 -152 -6 -66 -4 -78 10 -84 11 -4 16 -18 16 -43 0 -42 20 -204 26 -210 2
-3 15 6 29 19 l25 24 -6 -35 -6 -34 23 23 c23 22 24 29 23 145 -1 97 -6 143
-27 222 -22 86 -27 137 -37 357 -7 160 -17 279 -26 315 -42 161 -140 265 -274
292 -30 6 -197 18 -370 27 -173 8 -443 24 -600 35 -157 10 -357 24 -445 30
-196 12 -253 26 -369 87 -76 40 -91 52 -88 70 8 72 10 67 -31 66 -35 -1 -38 0
-31 20 4 11 9 47 11 79 6 67 -12 79 -22 15 -4 -23 -18 -52 -32 -66 -22 -22
-29 -24 -96 -17 -40 3 -82 11 -94 17 -27 13 -63 83 -63 121 0 15 -4 27 -10 27
-5 0 -10 -20 -10 -45z m2208 -1145 c-5 -36 -7 -101 -5 -145 5 -83 5 -84 98
-265 33 -62 34 -70 34 -172 l-1 -108 -34 -35 c-31 -32 -35 -34 -52 -19 -16 15
-18 15 -24 0 -8 -21 -34 -21 -34 0 0 10 -6 13 -19 9 -56 -18 -57 86 -1 254
l41 124 -27 83 c-22 68 -26 95 -21 146 5 57 44 205 52 196 1 -1 -2 -32 -7 -68z
m-502 -67 c-19 -38 -37 -83 -41 -101 -6 -29 -3 -37 28 -66 26 -25 34 -39 30
-55 -8 -30 24 -40 43 -12 8 11 22 21 30 21 27 0 70 -28 82 -54 15 -33 42 -34
42 -2 0 26 35 42 56 25 20 -16 36 -99 41 -220 7 -133 1 -149 -59 -180 -37 -19
-42 -19 -50 -5 -13 23 -23 20 -37 -11 -11 -23 -14 -25 -27 -11 -11 11 -12 21
-5 41 6 15 7 27 3 27 -20 0 -112 -47 -112 -57 0 -19 -50 -16 -73 4 -18 17 -19
17 -32 0 -12 -16 -55 -23 -68 -11 -3 4 -2 14 3 24 8 14 5 16 -14 13 -13 -3
-27 0 -30 6 -4 6 -12 11 -17 11 -6 0 -7 -5 -3 -11 5 -8 -1 -10 -18 -6 -20 5
-27 2 -37 -19 -16 -37 -45 -28 -51 16 l-6 35 -17 -32 c-10 -18 -20 -33 -23
-33 -3 0 -20 11 -38 25 -41 32 -58 32 -51 2 6 -21 3 -23 -37 -24 -26 -1 -49 4
-59 13 -15 13 -17 13 -22 -1 -9 -21 -64 -20 -76 3 -13 25 -31 152 -31 222 0
34 6 88 14 119 8 31 16 94 18 141 l3 85 -29 -2 c-16 -1 -33 -6 -37 -10 -11
-11 -26 -185 -34 -384 -7 -154 -14 -203 -30 -187 -14 14 23 579 39 595 3 3 27
5 53 5 33 0 81 -13 153 -42 58 -23 134 -48 170 -56 160 -34 212 -10 298 141
59 102 108 117 58 18z m-2827 -95 c13 -55 14 -157 2 -176 -14 -22 -31 67 -31
159 0 89 10 94 29 17z m284 -130 c73 -37 158 -57 244 -58 56 0 64 -3 79 -25
23 -35 42 -123 50 -226 7 -89 -1 -114 -30 -90 -16 14 -26 4 -26 -26 0 -29 -26
-41 -52 -24 -10 6 -24 8 -31 4 -17 -11 -97 -12 -97 -2 0 5 -11 7 -24 3 -16 -4
-25 -1 -29 10 -9 24 -24 19 -31 -9 -4 -14 -12 -25 -19 -25 -21 0 -85 67 -102
106 -24 56 -48 210 -42 271 5 45 32 123 43 123 3 0 33 -14 67 -32z m-153 -376
c0 -15 -5 -22 -12 -20 -8 3 -14 25 -15 54 l-2 49 14 -30 c8 -16 14 -40 15 -53z
m640 -3 c0 -41 -4 -68 -9 -64 -13 8 -25 88 -16 114 13 42 25 19 25 -50z m1091
-1009 c86 -44 122 -163 77 -249 -36 -69 -86 -104 -158 -109 -114 -8 -199 62
-208 172 -13 159 143 260 289 186z m1694 8 c76 -39 126 -141 106 -216 -25 -93
-101 -152 -194 -152 -171 0 -253 214 -128 334 54 52 151 67 216 34z m-3232
-19 c79 -22 147 -111 147 -194 0 -121 -124 -222 -240 -196 -98 22 -160 99
-160 200 0 135 122 227 253 190z m2388 -549 c119 -61 134 -243 27 -323 -119
-90 -288 -23 -313 123 -13 77 39 175 110 206 46 20 129 17 176 -6z m-1504 -35
c87 -26 143 -100 143 -190 0 -155 -167 -251 -302 -172 -58 34 -88 81 -95 151
-11 102 53 193 151 216 46 11 48 11 103 -5z"/>
<path d="M1081 6178 c-58 -125 -63 -139 -52 -157 8 -12 15 -13 49 -2 35 12 47
11 126 -13 108 -33 130 -53 123 -108 -6 -42 -87 -220 -114 -250 -23 -26 -55
-22 -136 17 -86 40 -108 62 -116 113 -5 30 -11 38 -32 40 -23 3 -30 -6 -77
-103 -29 -58 -52 -115 -52 -126 0 -27 41 -45 68 -30 46 25 52 23 417 -154 99
-47 188 -94 198 -102 9 -9 17 -29 17 -45 0 -15 5 -36 11 -46 8 -13 3 -41 -21
-122 -37 -127 -74 -323 -91 -485 -20 -199 5 -653 38 -686 9 -9 81 5 93 18 4 4
1 46 -6 93 -21 138 -28 398 -15 550 52 573 280 1075 680 1499 76 80 76 84 27
130 l-27 25 -70 -70 c-38 -38 -102 -108 -142 -157 -65 -79 -74 -87 -99 -82
-17 4 -36 1 -50 -9 -12 -9 -33 -16 -46 -16 -24 0 -556 261 -581 285 -7 7 -13
26 -13 42 0 34 -14 53 -40 53 -15 0 -31 -24 -67 -102z m502 -347 c71 -34 130
-69 136 -80 21 -39 12 -90 -34 -180 -45 -91 -86 -131 -134 -131 -32 0 -218 97
-231 119 -5 11 -10 29 -10 41 0 38 126 287 146 290 1 0 58 -27 127 -59z"/>
<path d="M1693 3270 c-24 -10 -43 -22 -43 -26 0 -16 106 -205 163 -289 105
-158 187 -256 336 -406 299 -298 623 -498 1023 -630 131 -44 436 -115 446
-104 2 2 8 22 13 45 12 54 3 66 -64 74 -168 22 -451 111 -644 201 -471 222
-884 611 -1123 1059 -29 53 -55 96 -58 96 -4 0 -26 -9 -49 -20z"/>
<path d="M6193 3278 c-6 -7 -29 -49 -53 -93 -70 -129 -191 -302 -294 -422
-302 -351 -677 -600 -1119 -744 -120 -39 -335 -89 -382 -89 -32 0 -39 -17 -28
-72 6 -28 14 -43 24 -42 54 5 222 40 313 65 367 101 701 277 981 518 222 190
401 398 540 626 64 106 115 200 115 214 0 6 -18 20 -40 31 -46 24 -45 23 -57
8z"/>
</g>
</svg>
