<?xml version="1.0" standalone="no"?>
<!DOCTYPE svg PUBLIC "-//W3C//DTD SVG 20010904//EN"
 "http://www.w3.org/TR/2001/REC-SVG-20010904/DTD/svg10.dtd">
<svg version="1.0" xmlns="http://www.w3.org/2000/svg"
 width="672.000000pt" height="672.000000pt" viewBox="0 0 672.000000 672.000000"
 preserveAspectRatio="xMidYMid meet">

<g transform="translate(0.000000,672.000000) scale(0.100000,-0.100000)"
fill="#000000" stroke="none">
<path d="M2820 6205 c-8 -2 -90 -14 -182 -26 -93 -12 -175 -27 -184 -34 -23
-16 -11 -47 26 -68 16 -10 34 -26 40 -37 8 -16 32 -148 85 -482 21 -135 20
-154 -9 -173 -32 -22 -37 -37 -21 -69 11 -21 11 -28 2 -31 -7 -3 -59 -21 -117
-41 -136 -47 -350 -143 -357 -161 -3 -7 6 -31 21 -53 l26 -39 102 48 c240 113
484 184 763 223 139 19 496 16 635 -5 274 -43 523 -118 720 -216 117 -59 116
-59 140 -12 11 22 20 44 20 49 0 9 -113 67 -217 112 -29 12 -51 26 -48 30 2 4
27 10 54 13 160 19 304 175 346 373 18 84 19 193 3 246 -6 22 -31 62 -55 88
-51 57 -125 95 -328 169 -77 28 -151 56 -165 62 -21 9 -27 7 -42 -11 -22 -27
-22 -42 -2 -82 14 -27 14 -40 4 -92 -27 -141 -156 -489 -191 -518 -12 -10 -30
-18 -40 -18 -23 0 -39 -29 -39 -69 0 -37 -1 -37 -145 -16 -55 8 -164 18 -242
21 -132 7 -141 8 -133 25 19 35 11 58 -24 73 -23 10 -59 47 -114 118 -44 56
-96 119 -116 137 -20 19 -36 40 -36 46 0 6 18 28 40 50 54 53 74 109 67 186
-10 117 -79 180 -201 185 -39 2 -78 1 -86 -1z m35 -106 c47 -13 101 -66 110
-110 17 -75 -22 -142 -107 -185 -57 -29 -103 -34 -124 -13 -7 8 -21 53 -29 99
-9 47 -20 105 -24 129 -8 39 -6 47 15 67 26 27 89 32 159 13z m1516 -141 c107
-57 128 -81 139 -156 8 -60 0 -167 -18 -227 -15 -50 -60 -132 -92 -169 -17
-19 -52 -43 -78 -53 -89 -34 -251 -14 -269 33 -3 9 5 51 19 93 82 244 172 498
181 509 15 19 35 15 118 -30z m-1477 -268 c42 -21 72 -59 136 -173 18 -33 48
-74 67 -93 40 -40 42 -39 -89 -53 -128 -14 -125 -15 -132 14 -5 20 -15 26 -47
31 -48 8 -52 16 -74 133 -22 120 -21 129 18 146 44 20 74 18 121 -5z"/>
<path d="M1330 5614 c-138 -97 -236 -173 -238 -184 -4 -22 42 -60 72 -60 25 0
60 -23 94 -60 71 -79 299 -399 315 -443 4 -11 0 -31 -10 -47 -15 -27 -15 -30
1 -54 9 -14 23 -26 31 -26 8 0 52 27 97 60 46 33 141 101 211 151 127 90 167
132 167 177 0 30 -37 101 -56 109 -15 5 -73 -14 -75 -26 0 -3 -2 -27 -3 -53
-1 -42 -7 -53 -46 -93 -52 -53 -137 -99 -166 -89 -49 15 -68 33 -111 97 -68
103 -61 135 45 209 50 34 56 68 17 94 -23 15 -27 15 -51 -2 -82 -60 -121 -84
-137 -84 -45 0 -131 139 -120 193 11 54 130 147 189 147 18 0 45 -5 59 -10 32
-12 61 1 70 30 9 30 -67 130 -98 129 -12 0 -128 -74 -257 -165z"/>
<path d="M5421 5452 c-6 -11 -6 -24 1 -36 17 -30 0 -80 -46 -134 -114 -133
-343 -376 -370 -393 -22 -13 -41 -17 -67 -13 -30 5 -39 2 -53 -17 -19 -28 -15
-33 103 -129 44 -36 80 -70 81 -76 0 -6 -9 -21 -20 -34 -11 -13 -20 -25 -20
-28 0 -2 36 -42 80 -89 287 -303 498 -688 599 -1093 75 -302 91 -662 45 -991
l-6 -46 47 -12 c27 -7 51 -8 55 -4 4 4 15 65 25 135 24 180 17 561 -14 731
-23 128 -49 238 -76 330 -12 43 -14 62 -6 70 6 6 11 34 11 62 0 47 6 61 68
156 37 57 81 126 97 152 l30 48 130 -6 c159 -9 213 -18 283 -50 112 -51 123
-29 53 112 -28 57 -58 106 -67 110 -9 3 -28 -9 -53 -36 -36 -39 -40 -41 -98
-41 -105 0 -183 11 -183 27 0 21 139 201 161 208 10 4 27 4 38 0 10 -3 28 2
40 12 l22 18 -56 120 c-31 66 -61 123 -67 126 -11 7 -47 0 -49 -10 -1 -3 -3
-25 -4 -49 -2 -28 -18 -68 -48 -120 -24 -42 -56 -98 -71 -125 -28 -49 -80 -91
-130 -103 -56 -13 -349 37 -391 68 -17 13 -42 21 -60 20 -26 -1 -36 7 -80 65
-27 37 -90 111 -138 165 l-89 98 -4 64 c-5 76 -15 60 215 312 214 236 204 228
259 220 46 -6 72 4 72 29 0 17 -204 195 -224 195 -8 0 -20 -8 -25 -18z m427
-1328 c22 -7 13 -36 -35 -103 -57 -81 -124 -161 -133 -161 -11 0 -100 190
-100 214 0 12 7 32 16 44 15 21 19 22 127 16 62 -3 118 -7 125 -10z"/>
<path d="M2570 4975 c0 -51 18 -103 43 -124 27 -22 20 -31 -22 -31 -22 0 -42
-4 -45 -9 -3 -4 4 -26 15 -47 33 -63 8 -148 -74 -256 -64 -83 -70 -105 -37
-138 25 -25 81 -26 200 -4 167 30 150 32 204 -24 100 -104 168 -224 246 -434
50 -133 79 -178 128 -193 27 -8 31 15 5 36 -24 20 -50 86 -58 144 l-6 50 29
-61 c16 -33 52 -85 79 -115 42 -47 52 -67 72 -139 12 -47 32 -115 43 -151 18
-60 19 -79 10 -206 -5 -77 -12 -145 -16 -151 -11 -19 -74 -26 -93 -11 -13 11
-17 11 -20 2 -3 -9 -26 -13 -65 -13 -54 0 -60 2 -55 19 3 14 0 17 -14 14 -11
-3 -19 -9 -19 -13 0 -18 -34 -19 -52 -3 -19 17 -20 17 -29 0 -6 -9 -17 -17
-26 -17 -12 0 -14 7 -9 31 5 28 4 30 -17 24 -12 -4 -32 -13 -44 -21 -12 -8
-29 -14 -38 -14 -8 0 -15 -4 -15 -10 0 -14 -54 -12 -68 2 -10 10 -17 10 -32 0
-29 -18 -74 -16 -66 3 6 17 -3 19 -38 5 -20 -7 -34 -5 -61 10 -45 26 -48 25
-43 -5 6 -31 -5 -32 -25 -2 l-15 22 -11 -28 c-15 -40 -44 -32 -52 13 l-5 35
-20 -32 c-23 -39 -28 -40 -66 -8 -39 33 -51 32 -43 -5 9 -40 -10 -39 -31 1
-20 39 -29 360 -11 394 6 11 23 52 37 90 l26 70 38 -3 c40 -3 99 26 110 54 4
9 1 31 -6 49 -16 47 8 140 37 141 48 2 55 5 75 26 29 31 25 47 -15 64 -29 12
-43 12 -75 3 -34 -10 -41 -9 -66 10 -38 30 -140 30 -179 -1 -16 -12 -47 -23
-74 -26 -26 -2 -61 -14 -82 -28 -44 -30 -54 -30 -223 3 -131 25 -144 26 -230
14 -110 -15 -159 -37 -224 -100 -62 -60 -69 -90 -75 -320 -4 -154 2 -231 20
-231 13 0 42 48 43 70 1 24 1 24 12 5 13 -22 24 -211 14 -249 -4 -16 -16 -28
-30 -32 -13 -3 -29 -16 -36 -30 -17 -31 -33 -31 -50 1 -18 33 -30 32 -63 -10
-15 -19 -35 -35 -43 -35 -21 0 -29 29 -15 52 16 26 8 33 -19 18 -11 -6 -30 -8
-40 -5 -13 4 -20 2 -20 -7 -1 -30 -57 -75 -106 -85 l-49 -11 50 -1 c28 -1 68
-4 90 -6 111 -13 332 -26 523 -32 116 -3 212 -9 212 -12 0 -3 -50 -55 -111
-116 -61 -60 -117 -119 -125 -130 -11 -15 -14 -61 -14 -201 l0 -181 -60 -22
c-81 -30 -159 -106 -203 -198 -29 -63 -32 -76 -32 -168 0 -92 3 -105 33 -167
41 -85 109 -153 192 -192 60 -29 73 -31 170 -31 93 1 112 4 163 28 113 53 201
168 228 297 34 164 -75 364 -236 431 l-55 23 0 150 0 151 168 168 167 167 173
0 172 0 0 -608 0 -608 -56 -23 c-72 -30 -162 -114 -198 -184 -101 -201 -19
-443 184 -541 60 -29 73 -31 170 -31 93 0 112 3 162 27 153 72 250 235 234
397 -13 139 -114 279 -240 332 l-56 23 0 608 0 608 332 0 331 0 -121 -124
-122 -124 0 -180 0 -179 -74 -37 c-85 -42 -141 -98 -183 -185 -24 -49 -27 -68
-28 -156 0 -92 3 -105 32 -167 120 -253 448 -298 637 -88 151 168 116 441 -73
567 -33 23 -74 44 -91 48 l-30 7 0 146 0 147 163 163 162 162 168 0 167 0 0
-590 c0 -438 -3 -590 -12 -590 -32 0 -126 -61 -173 -113 -72 -79 -100 -155
-99 -262 2 -117 30 -183 113 -266 72 -72 132 -101 232 -114 108 -13 247 41
321 125 176 197 114 495 -128 610 l-64 31 2 582 3 582 165 3 164 3 168 -168
168 -168 0 -136 0 -136 -74 -37 c-86 -42 -145 -102 -185 -186 -23 -48 -26 -68
-26 -160 0 -96 3 -110 29 -165 74 -150 249 -244 402 -216 129 24 234 102 290
216 26 55 29 69 29 165 0 99 -2 109 -33 172 -46 94 -131 167 -234 201 -16 6
-18 24 -18 188 l0 182 -115 117 c-63 64 -115 118 -115 121 0 3 95 9 211 13
116 4 290 13 387 21 98 8 191 15 207 16 26 0 27 2 10 9 -11 5 -32 9 -47 9 -26
1 -28 4 -28 39 0 29 -7 45 -26 63 l-26 24 7 -32 c8 -37 -8 -45 -25 -13 -11 21
-30 27 -30 11 0 -5 -5 -22 -10 -37 -10 -25 -12 -26 -26 -12 -9 9 -19 31 -23
49 l-7 34 -18 -33 -17 -33 -35 30 c-50 44 -67 42 -50 -6 15 -42 11 -63 -10
-63 -9 0 -14 11 -14 30 0 33 -3 35 -29 20 -14 -7 -23 -5 -36 10 -25 28 -35 25
-35 -10 0 -33 -19 -40 -40 -15 -7 8 -16 15 -21 15 -5 0 -9 -7 -9 -15 0 -25
-17 -17 -25 13 -3 15 -10 126 -14 247 -7 210 -9 222 -34 275 -34 69 -34 122
-3 226 44 148 58 281 42 414 -8 67 -7 73 7 61 18 -14 39 -76 58 -166 18 -85
15 -389 -5 -482 -8 -39 -18 -108 -22 -152 -6 -69 -5 -81 10 -87 11 -4 16 -18
16 -43 0 -42 20 -204 26 -210 2 -3 15 6 29 19 l25 24 -6 -35 -6 -34 23 23 c23
21 24 29 24 140 0 93 -6 140 -27 227 -23 94 -29 146 -38 361 -7 159 -16 273
-26 310 -42 162 -139 266 -274 293 -30 6 -194 18 -365 26 -525 26 -1206 75
-1269 91 -33 8 -101 36 -150 62 -76 40 -91 52 -88 70 8 72 10 67 -31 66 -35
-1 -38 0 -31 20 4 11 9 47 11 79 6 67 -12 79 -22 15 -4 -23 -18 -52 -32 -66
-23 -22 -29 -24 -91 -18 -37 4 -79 12 -94 18 -31 11 -68 78 -68 121 0 15 -4
27 -10 27 -5 0 -10 -20 -10 -45z m2208 -1155 c-5 -41 -7 -107 -5 -147 5 -63
13 -87 71 -204 62 -123 66 -136 66 -198 -1 -89 -14 -139 -44 -170 -23 -22 -29
-24 -46 -13 -17 10 -21 10 -26 -3 -8 -20 -34 -19 -34 1 0 11 -5 14 -16 10 -58
-22 -59 85 -3 255 l40 122 -27 83 c-22 68 -26 95 -21 146 5 56 44 205 51 196
2 -1 -1 -37 -6 -78z m-502 -57 c-18 -38 -37 -83 -41 -101 -6 -29 -3 -36 29
-65 26 -25 34 -38 29 -55 -8 -31 24 -41 43 -13 8 11 22 21 30 21 29 0 74 -31
80 -55 8 -34 44 -34 44 -1 0 26 35 42 56 25 20 -16 36 -99 41 -220 7 -133 1
-149 -59 -180 -40 -20 -42 -20 -55 -3 -14 19 -15 19 -33 -15 -10 -20 -14 -21
-26 -9 -11 11 -12 21 -5 41 6 15 7 27 3 27 -20 0 -112 -47 -112 -57 0 -19 -50
-16 -73 4 -18 17 -19 17 -32 0 -13 -18 -60 -23 -70 -8 -3 5 2 17 11 26 15 15
14 15 -10 9 -16 -4 -32 -1 -42 7 -12 10 -17 10 -23 1 -4 -7 -14 -10 -23 -7 -9
4 -19 -3 -26 -20 -17 -37 -46 -29 -52 15 l-6 35 -17 -32 c-10 -18 -20 -33 -23
-33 -3 0 -20 11 -38 25 -41 32 -60 32 -53 3 5 -21 2 -23 -35 -25 -26 -2 -48 3
-59 13 -15 13 -17 13 -22 -1 -9 -21 -64 -20 -76 3 -13 25 -31 152 -31 222 0
34 6 88 14 119 8 31 16 94 18 141 l3 85 -29 -2 c-16 -1 -33 -6 -37 -10 -11
-11 -26 -185 -34 -389 -7 -150 -15 -198 -30 -182 -15 14 23 580 40 596 17 18
108 1 203 -38 107 -43 211 -70 274 -70 77 0 127 36 185 135 40 69 71 105 90
105 9 0 3 -21 -21 -67z m-2827 -95 c13 -55 14 -157 2 -176 -14 -22 -31 67 -31
159 0 89 10 94 29 17z m269 -123 c49 -32 179 -65 258 -65 70 0 84 -11 104 -80
11 -37 31 -178 32 -222 1 -38 -16 -56 -37 -38 -8 7 -15 11 -16 9 0 -2 -2 -12
-4 -22 -7 -36 -15 -47 -34 -47 -11 0 -21 6 -24 13 -3 9 -9 9 -26 -1 -12 -7
-31 -10 -42 -7 -11 4 -26 1 -34 -5 -12 -10 -16 -9 -21 4 -4 10 -13 14 -24 11
-9 -3 -23 1 -30 10 -18 21 -27 19 -34 -10 -4 -14 -12 -25 -19 -25 -27 0 -95
79 -111 127 -22 70 -39 207 -32 260 6 49 33 113 47 113 5 0 26 -11 47 -25z
m-138 -383 c0 -15 -5 -22 -12 -20 -8 3 -14 25 -15 54 l-2 49 14 -30 c8 -16 14
-40 15 -53z m640 3 c0 -36 -4 -65 -9 -65 -13 0 -25 82 -16 109 13 41 25 20 25
-44z m1091 -1015 c87 -45 123 -162 77 -249 -36 -69 -86 -104 -158 -109 -114
-8 -199 62 -208 172 -13 159 143 260 289 186z m1701 4 c40 -20 85 -81 97 -131
30 -117 -66 -233 -192 -233 -67 0 -121 30 -158 88 -27 42 -30 54 -27 113 3 54
9 73 31 103 33 43 66 66 110 77 39 9 102 2 139 -17z m-3239 -15 c113 -31 177
-167 128 -274 -89 -196 -382 -134 -381 81 1 137 121 230 253 193z m2388 -549
c119 -61 134 -243 27 -323 -166 -126 -388 59 -293 243 17 33 64 76 95 89 44
17 127 13 171 -9z m-1465 -51 c57 -27 96 -86 102 -153 5 -67 -10 -114 -50
-155 -47 -48 -86 -65 -148 -65 -104 -1 -188 73 -198 174 -16 169 138 273 294
199z"/>
<path d="M468 4713 c-26 -31 -108 -230 -102 -247 7 -19 17 -20 59 -5 26 10 45
7 118 -15 109 -33 131 -53 124 -108 -6 -42 -87 -220 -114 -250 -22 -24 -50
-22 -119 8 -88 38 -122 68 -130 112 -7 39 -18 52 -45 52 -18 0 -119 -195 -119
-230 0 -32 27 -45 64 -32 62 23 52 26 411 -148 105 -50 198 -99 208 -107 9 -9
17 -29 17 -45 0 -15 5 -36 11 -46 9 -14 6 -36 -14 -97 -31 -99 -62 -240 -84
-388 -33 -212 -16 -768 24 -808 9 -9 81 5 93 18 4 4 2 46 -6 93 -7 47 -16 159
-20 250 -28 663 215 1302 685 1799 76 80 76 84 27 130 l-27 25 -70 -70 c-38
-38 -102 -108 -141 -156 -64 -78 -74 -86 -99 -81 -17 3 -36 -1 -50 -11 -13 -9
-34 -16 -48 -16 -24 0 -554 260 -579 284 -8 8 -14 28 -15 46 -3 44 -37 69 -59
43z m455 -442 c71 -34 130 -69 136 -80 22 -39 12 -90 -34 -181 -47 -91 -87
-130 -134 -130 -23 0 -195 83 -223 108 -10 8 -18 27 -18 43 0 42 124 296 146
299 1 0 58 -27 127 -59z"/>
<path d="M1032 1710 c-19 -10 -36 -21 -39 -24 -7 -7 85 -177 150 -278 204
-312 517 -614 836 -806 196 -117 424 -216 637 -277 97 -27 336 -76 342 -70 2
2 8 22 13 45 12 54 3 66 -64 74 -28 4 -106 20 -172 36 -673 161 -1274 622
-1595 1224 -29 53 -57 96 -63 95 -7 0 -27 -9 -45 -19z"/>
<path d="M5533 1718 c-5 -7 -29 -48 -52 -91 -151 -280 -412 -584 -666 -779
-287 -219 -640 -380 -991 -452 -71 -15 -140 -29 -153 -32 -22 -5 -23 -8 -16
-52 4 -26 10 -50 13 -54 9 -9 258 42 374 76 260 77 543 214 763 370 218 154
466 404 626 631 69 98 199 323 199 344 0 9 -69 51 -83 51 -3 0 -9 -6 -14 -12z"/>
</g>
</svg>
